<?xml version="1.0" encoding="utf-8"?>
<!-- Generator: Adobe Illustrator 25.2.0, SVG Export Plug-In . SVG Version: 6.00 Build 0)  -->
<svg version="1.1" id="_x32_" xmlns="http://www.w3.org/2000/svg" xmlns:xlink="http://www.w3.org/1999/xlink" x="0px" y="0px"
	 viewBox="0 0 512 512" style="enable-background:new 0 0 512 512;" xml:space="preserve">
<style type="text/css">
	.st0{fill:#4B4B4B;}
</style>
<path class="st0" d="M437.6,351.6V89.9c0-49.6-40.2-89.9-89.9-89.9H164.3c-49.6,0-89.9,40.2-89.9,89.9v261.8
	c0,37.6,27.4,69,63.3,75.2L81.3,512h50.1l23.1-35h202.9l23.1,35h50.1l-56.4-85.1C410.2,420.6,437.6,389.3,437.6,351.6z M178.2,40.3
	h155.6v25.9H178.2V40.3z M131.4,124.2c0-11.3,9.1-20.4,20.4-20.4h208.5c11.3,0,20.4,9.2,20.4,20.4v86.2c0,11.3-9.2,20.4-20.4,20.4
	H151.8c-11.3,0-20.4-9.1-20.4-20.4L131.4,124.2L131.4,124.2z M150.8,374c-13.2,0-23.8-10.7-23.8-23.8c0-13.2,10.7-23.8,23.8-23.8
	c13.2,0,23.8,10.7,23.8,23.8C174.6,363.3,164,374,150.8,374z M169.6,454.3L187,428h138l17.4,26.3H169.6z M361.2,374
	c-13.2,0-23.8-10.7-23.8-23.8c0-13.2,10.7-23.8,23.8-23.8c13.2,0,23.8,10.7,23.8,23.8C385,363.3,374.4,374,361.2,374z"/>
</svg>
