<svg viewBox="0 0 512 512">
<path class="st0" d="M129.2,417.6c0,19.3,15.6,35,35,35H475c19.3,0,35-15.6,35-35v-27.9H129.2V417.6z"/>
<path class="st0" d="M479.9,59.4H143.1h-11.9c-5.2,0-12.2,0-22.2,0C48.8,59.4,0,108.3,0,168.5c0,60.2,48.9,105.6,109.1,109.1
	c11.6,0.7,21.8-0.5,30.7-3.2c10.2,31.9,29.2,59.8,54.3,80.8h255.2C487.6,323.1,512,274.9,512,221V91.5
	C512,73.8,497.6,59.4,479.9,59.4z M131.2,208.8c-6.6,3.7-14.1,5.9-22.2,5.9c-25.5,0-46.2-20.7-46.2-46.2c0-25.5,20.7-46.2,46.2-46.2
	c8.1,0,15.6,2.3,22.2,5.9V208.8z"/>
</svg>
