<svg viewBox="0 0 512 512">
	<path d="M479.3,335.9c20.8-28,32.7-64.9,32.7-110.4V103.3c0-24.7-20-44.8-44.8-44.8c0,0-85.1,0-171.4,0
		c-86.3,0-173.7,0-178.4,0C52.6,58.5,0,111,0,175.9c0,32.4,13.3,61.2,34.5,81.9c21.2,20.7,50.3,33.6,82,35.5
		c2.3,0.1,4.5,0.2,6.6,0.2c4.8,0,9.3-0.3,13.7-0.9c11.1,27.6,28.8,51.8,51.3,70.6l-0.3-0.3l0.3,0.2c0.7,0.6,1.6,1.3,2.5,2h-67V406
		c0,26.2,21.3,47.5,47.5,47.5h293.2c26.2,0,47.5-21.3,47.5-47.5v-40.9h-61.2C461.3,356.8,471,347.1,479.3,335.9z M482.8,394.2V406
		c0,10.2-8.3,18.4-18.4,18.4H171.2c-10.2,0-18.4-8.3-18.4-18.4v-11.8H247h147.9H482.8z M389.9,365.1H252.1
		c-11.8-4.3-21.7-9.2-29.3-13.5c-8.1-4.6-13.7-8.8-15.8-10.7l0.2,0.1l-0.2-0.2c-21.6-18-37.9-42.1-46.7-69.5l-4.4-13.5l-13.6,4
		c-5.5,1.6-11.7,2.6-19,2.6c-1.6,0-3.3,0-5-0.1c-24.9-1.4-47.3-11.5-63.3-27.2c-16-15.7-25.8-36.7-25.8-61.1
		c0-24.4,9.9-46.4,25.9-62.4c16-16,38-25.9,62.4-25.9c9.4,0,349.8,0,349.8,0c8.7,0,15.7,7,15.7,15.7v122.2c0,40.6-10.3,70.6-27,93.1
		C439.7,340.4,417,355.6,389.9,365.1z"/>
	<path d="M122.7,122.2C93,122.2,69,146.2,69,175.9c0,29.7,24.1,53.7,53.7,53.7c9.6,0,18.4-2.7,25.8-6.8l6.3-3.5v-86.9
		l-6.3-3.4C141.1,124.9,132.3,122.1,122.7,122.2z M130.6,204.2c-2.5,0.8-5.2,1.2-7.9,1.2c-16.3,0-29.5-13.2-29.5-29.5
		c0-16.3,13.2-29.5,29.5-29.5c2.7,0,5.3,0.5,7.9,1.2V204.2z"/>
</svg>
