<!--?xml version="1.0" encoding="utf-8"?-->
<!-- Generator: Adobe Illustrator 18.1.1, SVG Export Plug-In . SVG Version: 6.00 Build 0)  -->

<svg version="1.1" id="_x32_" xmlns="http://www.w3.org/2000/svg" xmlns:xlink="http://www.w3.org/1999/xlink" x="0px" y="0px" viewBox="0 0 512 512" style="width: 256px; height: 256px; opacity: 1;" xml:space="preserve">
<style type="text/css">
	.st0{fill:#4B4B4B;}
</style>
<g>
	<path class="st0" d="M0,60v392h512v-16V60H0z M32,92h448v328H32V92z" style="fill: rgb(75, 75, 75);"></path>
	<path class="st0" d="M368.973,156.61c0-15.282-12.383-27.664-27.672-27.664c-15.278,0-27.66,12.382-27.66,27.664
		c0,11.297,6.777,20.961,16.461,25.266c0,11.461,0,23.531,0,28.414c-0.008,20.5-8.278,38.954-21.703,52.398
		C294.953,276.117,276.5,284.39,256,284.39s-38.954-8.274-52.398-21.703c-13.426-13.445-21.695-31.898-21.703-52.398v-28.414
		c9.687-4.305,16.465-13.969,16.465-25.266c0-15.282-12.386-27.664-27.664-27.664c-15.289,0-27.672,12.382-27.672,27.664
		c0,11.297,6.778,20.969,16.473,25.266v28.414c0.004,53.305,43.199,96.493,96.5,96.508c53.301-0.008,96.496-43.203,96.5-96.508
		c0-4.882,0-16.953,0-28.414C362.195,177.578,368.973,167.906,368.973,156.61z" style="fill: rgb(75, 75, 75);"></path>
</g>
</svg>
