<svg xmlns="http://www.w3.org/2000/svg" width="30.762" height="57.6" viewBox="0 0 30.762 57.6">
  <path id="合体_14" data-name="合体 14" d="M3.424,57.6,0,20.832l3.193-.02L6.429,54.795l17.91-.015,3.212-33.951h3.211L27.343,57.6ZM7.4,53.609,5.347,22.8h.014v0l19.832-.023,0,.023h0l-.211,3.193L23.17,53.609Zm10.37-8.553c0,1.084.556,1.967,1.239,1.967s1.239-.883,1.239-1.967-.556-1.969-1.239-1.969S17.766,43.97,17.766,45.056Zm-6.638-7.113c0,1.458.747,2.644,1.664,2.644s1.661-1.186,1.661-2.644S13.709,35.3,12.793,35.3,11.128,36.483,11.128,37.943Zm5.186-8.883c0,1.931.988,3.5,2.2,3.5s2.2-1.57,2.2-3.5-.987-3.5-2.2-3.5S16.314,27.13,16.314,29.06ZM5.088,21.506,4.45,19.418a8.265,8.265,0,0,1-.093-.89,5,5,0,0,1,2.429-4.262l.006,0,.052-.028c-.03-.062-.065-.122-.092-.186a4.388,4.388,0,0,1-.346-1.706,4.288,4.288,0,0,1,.663-2.3h0A4.121,4.121,0,0,1,8.9,8.475h0c.111-.049.232-.083.349-.122a4.544,4.544,0,0,1-.17-1.2A4.067,4.067,0,0,1,9.21,6.149a4.377,4.377,0,0,1,.338-.892h0a6.03,6.03,0,0,1,1.029-1.409l.011-.012,0,0h0l0,0c.264-.275.542-.529.821-.771.372-.321.748-.621,1.1-.909a11.173,11.173,0,0,0,1.2-1.094,3.147,3.147,0,0,0,.406-.55.964.964,0,0,1,.791-.5V0h.041a.936.936,0,0,1,.7.329h.049l.067.147.023.036c.022.033.054.08.1.144.091.133.226.326.394.551h0a15.058,15.058,0,0,0,1.345,1.58l0,0a7.7,7.7,0,0,0,1.094.933l.007,0a9.769,9.769,0,0,1,1.2.952,5.169,5.169,0,0,1,.816.965,3.41,3.41,0,0,1,.341.683,2.8,2.8,0,0,1,.173.958c0,.067-.013.127-.017.192a4.28,4.28,0,0,1,1.28.682l0,0a4.445,4.445,0,0,1,1.437,2.028,4.862,4.862,0,0,1,.277,1.618,4.677,4.677,0,0,1-.4,1.916c-.018.04-.041.078-.061.118.064.034.131.061.194.1h0a4.081,4.081,0,0,1,1.323,1.313,4.831,4.831,0,0,1,.518,1.112,5.257,5.257,0,0,1,.25,1.6,4.947,4.947,0,0,1-.222,1.467l-.586,2.074ZM21.753,15a7.653,7.653,0,0,0-1.076.426,21.1,21.1,0,0,0-1.886,1.046c-1.333.817-2.774,1.817-4.1,2.68-.64.415-1.252.8-1.821,1.117H23.209a3.751,3.751,0,0,0,.984-1.233,2.922,2.922,0,0,0,.193-1.064,3.3,3.3,0,0,0-.2-1.125,2.713,2.713,0,0,0-.571-.94,2.211,2.211,0,0,0-.57-.436A3.375,3.375,0,0,0,21.769,15ZM19.962,8.978a2.985,2.985,0,0,0-1.039.266,8.556,8.556,0,0,0-1.259.692c-.894.578-1.875,1.358-2.884,2.15-.673.527-1.359,1.061-2.047,1.543a12.092,12.092,0,0,1-2.744,1.526,5.839,5.839,0,0,1-1.611.4,2.809,2.809,0,0,0-1.218.615,3.258,3.258,0,0,0-.929,1.3,3.2,3.2,0,0,0,.319,2.8h3.585c.249-.055.69-.181.848-.229a5.392,5.392,0,0,0,.7-.282A18.132,18.132,0,0,0,13.5,18.733c1.338-.838,2.875-1.916,4.349-2.846a21.984,21.984,0,0,1,2.8-1.549,7.484,7.484,0,0,1,.892-.33,2.439,2.439,0,0,0,.792-1.083,2.73,2.73,0,0,0,.233-1.117A2.855,2.855,0,0,0,22.2,10.4a2.566,2.566,0,0,0-1.1-1.04,3.141,3.141,0,0,0-1.135-.392ZM14.8,2.444a11.289,11.289,0,0,1-.9.844c-.629.535-1.291,1.037-1.837,1.552a5.652,5.652,0,0,0-.895,1.031,2.755,2.755,0,0,0-.291.587,2.119,2.119,0,0,0-.119.7,2.568,2.568,0,0,0,.108.715,4.324,4.324,0,0,0,.38.893.821.821,0,0,1,.014.757.7.7,0,0,1-.594.4,3.071,3.071,0,0,0-1.137.247,2.474,2.474,0,0,0-.8.557,2.344,2.344,0,0,0-.647,1.62,2.459,2.459,0,0,0,.194.95c.121.286.436.989.824,1.073a5.171,5.171,0,0,0,1.023-.345,12.261,12.261,0,0,0,1.913-1.111c1.32-.905,2.691-2.067,4-3.038a13.237,13.237,0,0,1,2.527-1.561c.074-.033.148-.061.221-.09a5.025,5.025,0,0,0,.594-.311,1.036,1.036,0,0,0,.208-.621.757.757,0,0,0-.029-.205,1.223,1.223,0,0,0-.117-.282,3.277,3.277,0,0,0-.7-.824,8.291,8.291,0,0,0-.913-.707,9.384,9.384,0,0,1-1.348-1.145A15.617,15.617,0,0,1,15.393,2.9c-.172-.214-.326-.415-.459-.6ZM10.588,3.838l-.009.01-.009.009Zm.006-.007,0,0Zm.876-.818-.054.047Z" fill="#2a2a2a"/>
</svg>
